<svg width="22" height="20" viewBox="0 0 22 20" fill="none" xmlns="http://www.w3.org/2000/svg">
<path fill-rule="evenodd" clip-rule="evenodd" d="M1.66671 11.3334H17.4867L12.6427 17.1468C12.1707 17.7121 12.248 18.5534 12.8134 19.0241C13.38 19.4961 14.22 19.4188 14.692 18.8534L21.3587 10.8534C21.4107 10.7907 21.436 10.7174 21.4747 10.6481C21.5067 10.5921 21.5454 10.5441 21.5694 10.4828C21.6294 10.3294 21.6654 10.1681 21.6654 10.0054C21.6654 10.0041 21.6667 10.0014 21.6667 10.0001C21.6667 9.99875 21.6654 9.99608 21.6654 9.99475C21.6654 9.83208 21.6294 9.67075 21.5694 9.51742C21.5454 9.45608 21.5067 9.40808 21.4747 9.35208C21.436 9.28275 21.4107 9.20942 21.3587 9.14675L14.692 1.14675C14.4267 0.830748 14.048 0.666748 13.6667 0.666748C13.3654 0.666748 13.0627 0.768081 12.8134 0.976081C12.248 1.44675 12.1707 2.28808 12.6427 2.85342L17.4867 8.66675H1.66671C0.930707 8.66675 0.333374 9.26408 0.333374 10.0001C0.333374 10.7361 0.930707 11.3334 1.66671 11.3334" fill="url(#paint0_linear_116_1226)"/>
<defs>
<linearGradient id="paint0_linear_116_1226" x1="-2.86663" y1="0.666747" x2="17.1859" y2="-4.81557" gradientUnits="userSpaceOnUse">
<stop stop-color="#10E9E9"/>
<stop offset="1" stop-color="#C8009C"/>
</linearGradient>
</defs>
</svg>
