<svg width="232" height="94" viewBox="0 0 232 94" fill="none" xmlns="http://www.w3.org/2000/svg">
<path d="M30.0567 20.3452C13.704 20.3452 0.0772705 27.2828 0.0772705 48.2133C0.0772705 64.7949 9.24023 75.237 30.4789 75.237C55.4778 75.237 57.0803 58.7694 57.0803 58.7694H44.9672C44.9672 58.7694 42.37 67.6366 29.74 67.6366C19.4532 67.6366 12.0545 60.6875 12.0545 50.9474H58.3471V44.8354C58.3471 35.1993 52.23 20.3452 30.0567 20.3452ZM29.6344 28.1567C39.4264 28.1567 46.102 34.1555 46.102 43.1464H12.3224C12.3224 33.6014 21.0357 28.1567 29.6344 28.1567Z" fill="#E53238"/>
<path d="M58.3386 0.0784302V64.7268C58.3386 68.3964 58.0767 73.5491 58.0767 73.5491H69.6301C69.6301 73.5491 70.0447 69.8484 70.0447 66.4663C70.0447 66.4663 75.7529 75.3964 91.2737 75.3964C107.618 75.3964 118.72 64.0492 118.72 47.7921C118.72 32.6683 108.522 20.5045 91.3001 20.5045C75.1728 20.5045 70.1614 29.2133 70.1614 29.2133V0.0784302H58.3386ZM88.318 28.5008C99.4168 28.5008 106.475 36.7381 106.475 47.7921C106.475 59.6456 98.3231 67.4001 88.3971 67.4001C76.5513 67.4001 70.1614 58.151 70.1614 47.8977C70.1614 38.3436 75.8953 28.5008 88.318 28.5008Z" fill="#0064D2"/>
<path d="M147.432 20.3452C122.831 20.3452 121.253 33.8157 121.253 35.9682H133.498C133.498 35.9682 134.14 28.1039 146.588 28.1039C154.676 28.1039 160.944 31.8062 160.944 38.9239V41.4574H146.588C127.529 41.4574 117.453 47.0329 117.453 58.3472C117.453 69.4821 126.763 75.5405 139.344 75.5405C156.489 75.5405 162.013 66.0664 162.013 66.0664C162.013 69.8346 162.303 73.548 162.303 73.548H173.189C173.189 73.548 172.767 68.9452 172.767 66.0004V40.5469C172.767 23.8575 159.305 20.3452 147.432 20.3452ZM160.944 49.0578V52.4358C160.944 56.8415 158.225 67.7949 142.22 67.7949C133.456 67.7949 129.698 63.4208 129.698 58.3472C129.698 49.1173 142.353 49.0578 160.944 49.0578Z" fill="#F5AF02"/>
<path d="M166.173 22.4585H179.949L199.719 62.0666L219.444 22.4585H231.923L195.994 92.9734H182.905L193.272 73.3164L166.173 22.4585Z" fill="#86B817"/>
</svg>
