<svg width="17" height="13" viewBox="0 0 17 13" fill="none" xmlns="http://www.w3.org/2000/svg">
<path fill-rule="evenodd" clip-rule="evenodd" d="M2.5442 2.71663C2.56399 2.52309 2.48944 2.33217 2.3443 2.20227L0.866522 0.430898V0.166504H5.45687L9.00486 7.90479L12.124 0.166504H16.5V0.430898L15.2359 1.63609C15.1271 1.71875 15.073 1.85456 15.0954 1.98905V10.8446C15.073 10.9784 15.1271 11.1143 15.2359 11.1969L16.4703 12.4021V12.6665H10.261V12.4021L11.5402 11.1674C11.6655 11.0427 11.6655 11.006 11.6655 10.8151V3.65742L8.11027 12.6376H7.62999L3.49024 3.65742V9.67616C3.45593 9.92875 3.54038 10.184 3.71916 10.3663L5.38232 12.3726V12.6376H0.666626V12.3726L2.32979 10.3663C2.50791 10.1833 2.58708 9.92678 2.5442 9.67616V2.71663Z" fill="white"/>
</svg>
