<svg width="106" height="460" viewBox="0 0 106 460" fill="none" xmlns="http://www.w3.org/2000/svg">
<path opacity="0.1" d="M35.68 422.46C40.6267 422.46 45.2933 423.627 49.68 425.96C54.0667 428.293 57.66 432.027 60.46 437.16C63.1667 442.293 64.52 448.873 64.52 456.9L64.52 474.54L104 474.54V490.5L6.69999 490.5L6.69999 456.9C6.69999 449.433 8.00666 443.133 10.62 438C13.14 432.773 16.5933 428.9 20.98 426.38C25.3667 423.767 30.2667 422.46 35.68 422.46ZM51.5 456.9C51.5 450.833 50.1467 446.307 47.44 443.32C44.64 440.333 40.72 438.84 35.68 438.84C25.04 438.84 19.72 444.86 19.72 456.9L19.72 474.54H51.5L51.5 456.9ZM105.26 373.778C105.26 381.058 103.627 387.638 100.36 393.518C97 399.398 92.3333 404.018 86.36 407.378C80.2933 410.738 73.2933 412.418 65.36 412.418C57.52 412.418 50.5667 410.692 44.5 407.238C38.4333 403.785 33.7667 399.072 30.5 393.098C27.2333 387.125 25.6 380.452 25.6 373.078C25.6 365.705 27.2333 359.032 30.5 353.058C33.7667 347.085 38.4333 342.372 44.5 338.918C50.5667 335.465 57.52 333.738 65.36 333.738C73.2 333.738 80.1533 335.512 86.22 339.058C92.2867 342.605 97 347.458 100.36 353.618C103.627 359.685 105.26 366.405 105.26 373.778ZM91.4 373.778C91.4 369.672 90.42 365.845 88.46 362.298C86.5 358.658 83.56 355.718 79.64 353.478C75.72 351.238 70.96 350.118 65.36 350.118C59.76 350.118 55.0467 351.192 51.22 353.338C47.3 355.485 44.36 358.332 42.4 361.878C40.44 365.425 39.46 369.252 39.46 373.358C39.46 377.465 40.44 381.292 42.4 384.838C44.36 388.292 47.3 391.045 51.22 393.098C55.0467 395.152 59.76 396.178 65.36 396.178C73.6667 396.178 80.1067 394.078 84.68 389.878C89.16 385.585 91.4 380.218 91.4 373.778ZM39.88 299.341H82.58C85.4733 299.341 87.5733 298.688 88.88 297.381C90.0933 295.981 90.7 293.648 90.7 290.381V280.581H104V293.181C104 300.368 102.32 305.874 98.96 309.701C95.6 313.528 90.14 315.441 82.58 315.441H39.88V324.541H26.86V315.441H7.68V299.341H26.86V280.581H39.88V299.341ZM0.399999 249.911L104 249.911V265.871H0.399999L0.399999 249.911ZM26.86 159.097L104 159.097V175.057H94.9C98.0733 177.577 100.593 180.89 102.46 184.997C104.233 189.01 105.12 193.304 105.12 197.877C105.12 203.944 103.86 209.404 101.34 214.257C98.82 219.017 95.0867 222.797 90.14 225.597C85.1933 228.304 79.22 229.657 72.22 229.657H26.86V213.837H69.84C76.7467 213.837 82.0667 212.11 85.8 208.657C89.44 205.204 91.26 200.49 91.26 194.517C91.26 188.544 89.44 183.83 85.8 180.377C82.0667 176.83 76.7467 175.057 69.84 175.057H26.86V159.097ZM65.36 143.359C57.4267 143.359 50.4733 141.772 44.5 138.599C38.4333 135.332 33.7667 130.852 30.5 125.159C27.2333 119.466 25.6 112.932 25.6 105.559C25.6 96.2257 27.84 88.5257 32.32 82.4591C36.7067 76.2991 43.0067 72.1457 51.22 69.9991L51.22 87.2191C47.3933 88.6191 44.4067 90.8591 42.26 93.9391C40.1133 97.0191 39.04 100.892 39.04 105.559C39.04 112.092 41.3733 117.319 46.04 121.239C50.6133 125.066 57.0533 126.979 65.36 126.979C73.6667 126.979 80.1533 125.066 84.82 121.239C89.4867 117.319 91.82 112.092 91.82 105.559C91.82 96.3191 87.76 90.2057 79.64 87.2191L79.64 69.9991C87.48 72.2391 93.7333 76.4391 98.4 82.5991C102.973 88.7591 105.26 96.4124 105.26 105.559C105.26 112.932 103.627 119.466 100.36 125.159C97 130.852 92.3333 135.332 86.36 138.599C80.2933 141.772 73.2933 143.359 65.36 143.359ZM65.5 23.5737L104 -11.9863V9.57375L70.82 38.1337L104 38.1337L104 54.0937L0.399999 54.0937V38.1337H60.6L26.86 10.1337V-11.9863L65.5 23.5737Z" fill="white"/>
</svg>
