<svg width="87" height="503" viewBox="0 0 87 503" fill="none" xmlns="http://www.w3.org/2000/svg">
<path opacity="0.1" d="M35.68 434.46C40.6267 434.46 45.2933 435.627 49.68 437.96C54.0667 440.293 57.66 444.027 60.46 449.16C63.1667 454.293 64.52 460.873 64.52 468.9L64.52 486.54L104 486.54V502.5L6.69999 502.5L6.69999 468.9C6.69999 461.433 8.00666 455.133 10.62 450C13.14 444.773 16.5933 440.9 20.98 438.38C25.3667 435.767 30.2667 434.46 35.68 434.46ZM51.5 468.9C51.5 462.833 50.1467 458.307 47.44 455.32C44.64 452.333 40.72 450.84 35.68 450.84C25.04 450.84 19.72 456.86 19.72 468.9L19.72 486.54H51.5L51.5 468.9ZM105.26 385.778C105.26 393.058 103.627 399.638 100.36 405.518C97 411.398 92.3333 416.018 86.36 419.378C80.2933 422.738 73.2933 424.418 65.36 424.418C57.52 424.418 50.5667 422.692 44.5 419.238C38.4333 415.785 33.7667 411.072 30.5 405.098C27.2333 399.125 25.6 392.452 25.6 385.078C25.6 377.705 27.2333 371.032 30.5 365.058C33.7667 359.085 38.4333 354.372 44.5 350.918C50.5667 347.465 57.52 345.738 65.36 345.738C73.2 345.738 80.1533 347.512 86.22 351.058C92.2867 354.605 97 359.458 100.36 365.618C103.627 371.685 105.26 378.405 105.26 385.778ZM91.4 385.778C91.4 381.672 90.42 377.845 88.46 374.298C86.5 370.658 83.56 367.718 79.64 365.478C75.72 363.238 70.96 362.118 65.36 362.118C59.76 362.118 55.0467 363.192 51.22 365.338C47.3 367.485 44.36 370.332 42.4 373.878C40.44 377.425 39.46 381.252 39.46 385.358C39.46 389.465 40.44 393.292 42.4 396.838C44.36 400.292 47.3 403.045 51.22 405.098C55.0467 407.152 59.76 408.178 65.36 408.178C73.6667 408.178 80.1067 406.078 84.68 401.878C89.16 397.585 91.4 392.218 91.4 385.778ZM39.88 311.341H82.58C85.4733 311.341 87.5733 310.688 88.88 309.381C90.0933 307.981 90.7 305.648 90.7 302.381V292.581H104V305.181C104 312.368 102.32 317.874 98.96 321.701C95.6 325.528 90.14 327.441 82.58 327.441H39.88V336.541H26.86V327.441H7.68V311.341H26.86V292.581H39.88V311.341ZM0.399999 261.911H104V277.871H0.399999L0.399999 261.911ZM26.86 171.097L104 171.097V187.057H94.9C98.0733 189.577 100.593 192.89 102.46 196.997C104.233 201.01 105.12 205.304 105.12 209.877C105.12 215.944 103.86 221.404 101.34 226.257C98.82 231.017 95.0867 234.797 90.14 237.597C85.1933 240.304 79.22 241.657 72.22 241.657H26.86V225.837H69.84C76.7467 225.837 82.0667 224.11 85.8 220.657C89.44 217.204 91.26 212.49 91.26 206.517C91.26 200.544 89.44 195.83 85.8 192.377C82.0667 188.83 76.7467 187.057 69.84 187.057H26.86V171.097ZM65.36 155.359C57.4267 155.359 50.4733 153.772 44.5 150.599C38.4333 147.332 33.7667 142.852 30.5 137.159C27.2333 131.466 25.6 124.932 25.6 117.559C25.6 108.226 27.84 100.526 32.32 94.4591C36.7067 88.2991 43.0067 84.1457 51.22 81.9991L51.22 99.2191C47.3933 100.619 44.4067 102.859 42.26 105.939C40.1133 109.019 39.04 112.892 39.04 117.559C39.04 124.092 41.3733 129.319 46.04 133.239C50.6133 137.066 57.0533 138.979 65.36 138.979C73.6667 138.979 80.1533 137.066 84.82 133.239C89.4867 129.319 91.82 124.092 91.82 117.559C91.82 108.319 87.76 102.206 79.64 99.2191L79.64 81.9991C87.48 84.2391 93.7333 88.4391 98.4 94.5991C102.973 100.759 105.26 108.412 105.26 117.559C105.26 124.932 103.627 131.466 100.36 137.159C97 142.852 92.3333 147.332 86.36 150.599C80.2933 153.772 73.2933 155.359 65.36 155.359ZM65.5 35.5737L104 0.0137429V21.5737L70.82 50.1337L104 50.1337L104 66.0937L0.399999 66.0937V50.1337H60.6L26.86 22.1337V0.0137429L65.5 35.5737Z" fill="white"/>
</svg>
