<svg width="127" height="635" viewBox="0 0 127 635" fill="none" xmlns="http://www.w3.org/2000/svg">
<path d="M46.16 559.02C52.52 559.02 58.52 560.52 64.16 563.52C69.8 566.52 74.42 571.32 78.02 577.92C81.5 584.52 83.24 592.98 83.24 603.3V625.98H134V646.5H8.89999L8.89999 603.3C8.89999 593.7 10.58 585.6 13.94 579C17.18 572.28 21.62 567.3 27.26 564.06C32.9 560.7 39.2 559.02 46.16 559.02ZM66.5 603.3C66.5 595.5 64.76 589.68 61.28 585.84C57.68 582 52.64 580.08 46.16 580.08C32.48 580.08 25.64 587.82 25.64 603.3L25.64 625.98H66.5V603.3ZM135.62 496.429C135.62 505.789 133.52 514.249 129.32 521.809C125 529.369 119 535.309 111.32 539.629C103.52 543.949 94.52 546.109 84.32 546.109C74.24 546.109 65.3 543.889 57.5 539.449C49.7 535.009 43.7 528.949 39.5 521.269C35.3 513.589 33.2 505.009 33.2 495.529C33.2 486.049 35.3 477.469 39.5 469.789C43.7 462.109 49.7 456.049 57.5 451.609C65.3 447.169 74.24 444.949 84.32 444.949C94.4 444.949 103.34 447.229 111.14 451.789C118.94 456.349 125 462.589 129.32 470.509C133.52 478.309 135.62 486.949 135.62 496.429ZM117.8 496.429C117.8 491.149 116.54 486.229 114.02 481.669C111.5 476.989 107.72 473.209 102.68 470.329C97.64 467.449 91.52 466.009 84.32 466.009C77.12 466.009 71.06 467.389 66.14 470.149C61.1 472.909 57.32 476.569 54.8 481.129C52.28 485.689 51.02 490.609 51.02 495.889C51.02 501.169 52.28 506.089 54.8 510.649C57.32 515.089 61.1 518.629 66.14 521.269C71.06 523.909 77.12 525.229 84.32 525.229C95 525.229 103.28 522.529 109.16 517.129C114.92 511.609 117.8 504.709 117.8 496.429ZM51.56 400.724L106.46 400.724C110.18 400.724 112.88 399.884 114.56 398.204C116.12 396.404 116.9 393.404 116.9 389.204V376.604H134V392.804C134 402.044 131.84 409.124 127.52 414.044C123.2 418.964 116.18 421.424 106.46 421.424H51.56V433.124H34.82V421.424H10.16L10.16 400.724H34.82L34.82 376.604H51.56V400.724ZM0.799998 337.171L134 337.171L134 357.691L0.799998 357.691L0.799998 337.171ZM34.82 220.41L134 220.41V240.93H122.3C126.38 244.17 129.62 248.43 132.02 253.71C134.3 258.87 135.44 264.39 135.44 270.27C135.44 278.07 133.82 285.09 130.58 291.33C127.34 297.45 122.54 302.31 116.18 305.91C109.82 309.39 102.14 311.13 93.14 311.13H34.82L34.82 290.79H90.08C98.96 290.79 105.8 288.57 110.6 284.13C115.28 279.69 117.62 273.63 117.62 265.95C117.62 258.27 115.28 252.21 110.6 247.77C105.8 243.21 98.96 240.93 90.08 240.93H34.82L34.82 220.41ZM84.32 200.176C74.12 200.176 65.18 198.136 57.5 194.056C49.7 189.856 43.7 184.096 39.5 176.776C35.3 169.456 33.2 161.056 33.2 151.576C33.2 139.576 36.08 129.676 41.84 121.876C47.48 113.956 55.58 108.616 66.14 105.856L66.14 127.996C61.22 129.796 57.38 132.676 54.62 136.636C51.86 140.596 50.48 145.576 50.48 151.576C50.48 159.976 53.48 166.696 59.48 171.736C65.36 176.656 73.64 179.116 84.32 179.116C95 179.116 103.34 176.656 109.34 171.736C115.34 166.696 118.34 159.976 118.34 151.576C118.34 139.696 113.12 131.836 102.68 127.996V105.856C112.76 108.736 120.8 114.136 126.8 122.056C132.68 129.976 135.62 139.816 135.62 151.576C135.62 161.056 133.52 169.456 129.32 176.776C125 184.096 119 189.856 111.32 194.056C103.52 198.136 94.52 200.176 84.32 200.176ZM84.5 46.1662L134 0.446241V28.1662L91.34 64.8862H134L134 85.4062H0.799998L0.799998 64.8862H78.2L34.82 28.8862L34.82 0.446241L84.5 46.1662Z" fill="white"/>
</svg>
