<svg width="253" height="83" viewBox="0 0 253 83" fill="none" xmlns="http://www.w3.org/2000/svg">
<path d="M59.6671 23.9757C59.627 23.6879 59.3721 23.5282 59.1605 23.5108C58.9504 23.4934 54.8364 23.4317 54.8364 23.4317C54.8364 23.4317 51.3958 20.1362 51.0559 19.8009C50.716 19.4657 50.0523 19.5669 49.7942 19.6428C49.791 19.6444 49.148 19.8404 48.0658 20.171C47.8847 19.5922 47.6185 18.8806 47.2385 18.1658C46.0136 15.8601 44.2196 14.6409 42.052 14.6377C42.0488 14.6377 42.0472 14.6377 42.044 14.6377C41.8932 14.6377 41.7441 14.652 41.5934 14.6646C41.5293 14.5887 41.4652 14.5144 41.3978 14.4416C40.4535 13.4454 39.243 12.9599 37.7921 13.0026C34.9928 13.0817 32.2047 15.0758 29.9441 18.618C28.3536 21.1103 27.1432 24.2414 26.8001 26.6656C23.5855 27.6477 21.3377 28.334 21.288 28.3498C19.6655 28.8527 19.6142 28.9017 19.4026 30.4103C19.2455 31.5505 15 63.9307 15 63.9307L50.5782 70L65.9984 66.2189C65.9984 66.2189 59.7072 24.2635 59.6671 23.9757ZM46.2846 20.7149C45.4653 20.9648 44.5338 21.2494 43.5238 21.5578C43.5029 20.1599 43.3346 18.2148 42.674 16.5338C44.7984 16.9307 45.8437 19.3012 46.2846 20.7149ZM41.6624 22.1271C39.7978 22.6964 37.7632 23.3179 35.7223 23.9409C36.2962 21.7729 37.3849 19.6143 38.722 18.199C39.219 17.6724 39.9148 17.0857 40.7389 16.7504C41.5133 18.3445 41.6816 20.6011 41.6624 22.1271ZM37.8482 14.8401C38.5055 14.8259 39.0587 14.9682 39.5316 15.275C38.7749 15.6625 38.0438 16.2191 37.3576 16.945C35.5796 18.8268 34.2168 21.7476 33.6733 24.5656C31.9786 25.0827 30.3208 25.5903 28.7945 26.0552C29.7581 21.6195 33.5274 14.9635 37.8482 14.8401Z" fill="#95BF47"/>
<path d="M59.162 23.512C58.952 23.4946 54.838 23.4329 54.838 23.4329C54.838 23.4329 51.3974 20.1373 51.0575 19.8021C50.9308 19.6772 50.7593 19.6123 50.5797 19.5854L50.5813 69.998L66 66.2185C66 66.2185 59.7087 24.2647 59.6686 23.9769C59.6286 23.6891 59.372 23.5294 59.162 23.512Z" fill="#5E8E3E"/>
<path d="M42.0327 31.3323L40.2419 37.9408C40.2419 37.9408 38.2442 37.0442 35.8762 37.1913C32.4035 37.4079 32.3666 39.5681 32.4019 40.1105C32.5911 43.0661 40.4743 43.7113 40.9168 50.6345C41.2647 56.0808 37.9877 59.8065 33.266 60.1006C27.5985 60.4533 24.4785 57.1561 24.4785 57.1561L25.6794 52.1178C25.6794 52.1178 28.8202 54.4551 31.3341 54.2986C32.9758 54.1958 33.5626 52.8785 33.5033 51.9471C33.2564 48.0917 26.8369 48.3194 26.4313 41.9844C26.0898 36.6536 29.6394 31.2516 37.4714 30.7646C40.4888 30.5732 42.0327 31.3323 42.0327 31.3323Z" fill="white"/>
<path d="M99.723 49.836C99.6216 50.9368 99.7448 51.7189 100.092 52.1824C100.672 53.008 101.997 53.4208 104.068 53.4208C105.285 53.4208 106.292 53.2397 107.088 52.8776C107.885 52.5155 108.363 51.9724 108.522 51.2482C108.667 50.553 108.486 50.0243 107.979 49.6622C107.472 49.3001 105.451 48.6773 101.917 47.7938C99.3827 47.1275 97.6735 46.2947 96.79 45.2953C95.892 44.3103 95.6458 42.8909 96.0513 41.037C96.5148 38.8499 97.7677 36.9742 99.8099 35.4099C101.867 33.8312 104.452 33.0418 107.566 33.0418C110.521 33.0418 112.802 33.6356 114.41 34.8233C116.018 35.9965 116.655 38.0315 116.322 40.9283H110.13C110.202 40.1317 110.108 39.5017 109.847 39.0382C109.34 38.1981 108.269 37.7781 106.632 37.7781C105.285 37.7781 104.278 37.9881 103.612 38.4081C102.96 38.8282 102.576 39.3206 102.461 39.8855C102.301 40.5952 102.497 41.1094 103.047 41.428C103.583 41.7612 105.611 42.3333 109.13 43.1444C111.462 43.7237 113.121 44.6 114.106 45.7732C115.076 46.9609 115.373 48.4455 114.996 50.2271C114.489 52.5735 113.208 54.4926 111.151 55.9845C109.094 57.4618 106.241 58.2005 102.591 58.2005C98.8685 58.2005 96.2831 57.4184 94.8347 55.8541C93.4008 54.2753 92.9373 52.2693 93.4442 49.836H99.723Z" fill="#302D2D"/>
<path d="M142.567 36.1921C143.03 37.0756 143.233 37.9881 143.175 38.9295C143.132 39.8565 142.885 41.3773 142.436 43.492L139.482 57.3966H133.159L136.201 42.9923C136.476 41.7177 136.483 40.6893 136.223 39.9072C135.89 38.8064 134.934 38.256 133.355 38.256C131.718 38.256 130.357 38.8064 129.27 39.9072C128.199 40.9935 127.445 42.5505 127.011 44.5783L124.295 57.3966H118.125L124.903 25.4812H131.074L128.662 36.8004C129.85 35.4244 131.088 34.4685 132.377 33.9326C133.681 33.3822 134.984 33.107 136.288 33.107C137.751 33.107 139.025 33.3604 140.112 33.8674C141.198 34.3743 142.016 35.1492 142.567 36.1921Z" fill="#302D2D"/>
<path d="M164.032 45.5994C164.539 43.224 164.438 41.3991 163.728 40.1245C163.033 38.8354 161.78 38.1909 159.969 38.1909C158.159 38.1909 156.631 38.8354 155.385 40.1245C154.139 41.3991 153.263 43.224 152.756 45.5994C152.249 47.9748 152.343 49.807 153.039 51.0961C153.748 52.3852 155.008 53.0297 156.819 53.0297C158.629 53.0297 160.158 52.3852 161.403 51.0961C162.649 49.807 163.525 47.9748 164.032 45.5994ZM155.733 58.2222C151.663 58.2222 148.889 56.9911 147.412 54.5288C145.949 52.052 145.587 49.0756 146.325 45.5994C147.05 42.1812 148.679 39.2192 151.214 36.7135C153.748 34.2078 157.051 32.9549 161.121 32.9549C165.191 32.9549 167.957 34.2078 169.42 36.7135C170.883 39.2192 171.252 42.1812 170.528 45.5994C169.789 49.0756 168.153 52.052 165.618 54.5288C163.098 56.9911 159.803 58.2222 155.733 58.2222Z" fill="#302D2D"/>
<path d="M187.474 38.6037C185.229 38.6037 183.462 39.6682 182.173 41.7974C181.507 42.9271 180.986 44.361 180.609 46.0991C180.03 48.8511 180.348 50.7847 181.565 51.9C182.304 52.5517 183.267 52.8776 184.454 52.8776C186.178 52.8776 187.634 52.2114 188.821 50.8788C190.009 49.5463 190.835 47.772 191.298 45.556C191.689 43.731 191.617 42.116 191.081 40.7111C190.545 39.3061 189.343 38.6037 187.474 38.6037ZM197.751 45.2518C196.867 49.4232 195.252 52.6024 192.906 54.7895C190.574 56.9766 187.931 58.0701 184.976 58.0701C183.093 58.0701 181.63 57.5994 180.587 56.658C180.008 56.1365 179.501 55.3761 179.066 54.3767L176.438 66.7171H170.311L177.328 33.7153H183.259L182.521 37.2132C183.404 36.1848 184.288 35.3737 185.171 34.7799C186.765 33.7225 188.51 33.1939 190.407 33.1939C193.174 33.1939 195.296 34.215 196.773 36.2572C198.265 38.2995 198.591 41.2977 197.751 45.2518Z" fill="#302D2D"/>
<path d="M211.677 30.8909H205.398L206.615 25.177H212.894L211.677 30.8909ZM204.79 33.7153H211.069L206.05 57.3966H199.771L204.79 33.7153Z" fill="#302D2D"/>
<path d="M230.014 25.177L228.928 30.2174C228.594 30.174 228.022 30.145 227.211 30.1305C226.4 30.1015 225.792 30.2826 225.386 30.6737C224.995 31.0502 224.756 31.4703 224.669 31.9338C224.568 32.3973 224.423 33.0635 224.235 33.9326H228.297L227.363 38.2995H223.301L219.259 57.3966H213.089L217.13 38.2995H213.676L214.61 33.9326H217.999L218.325 32.4117C218.861 29.877 219.658 28.1317 220.715 27.1758C221.917 25.7563 224.235 25.0466 227.667 25.0466C228.059 25.0466 228.406 25.0611 228.71 25.0901C229.029 25.1046 229.463 25.1335 230.014 25.177Z" fill="#302D2D"/>
<path d="M226.864 61.9374L227.646 61.9808C228.24 62.0098 228.819 61.9881 229.384 61.9156C229.949 61.8432 230.448 61.6767 230.883 61.416C231.303 61.1697 231.752 60.6555 232.23 59.8734C232.708 59.0913 232.932 58.6133 232.903 58.4395L229.471 33.7153H236.358L237.813 51.183L246.417 33.7153H253L239.921 57.0056C237.401 61.4956 235.568 64.2765 234.424 65.3484C233.294 66.4347 231.361 66.9778 228.623 66.9778C228.073 66.9778 227.631 66.9706 227.298 66.9561C226.965 66.9561 226.473 66.9344 225.821 66.8909L226.864 61.9374Z" fill="#302D2D"/>
</svg>
