<svg width="18" height="15" viewBox="0 0 18 15" fill="none" xmlns="http://www.w3.org/2000/svg">
<path d="M17.3333 2.22542C16.7381 2.49786 16.0578 2.67949 15.3775 2.7703C16.0578 2.31624 16.653 1.58975 16.9081 0.772439C16.2278 1.2265 15.5476 1.49893 14.6972 1.68056C14.102 0.954062 13.1666 0.5 12.2312 0.5C10.3605 0.5 8.82989 2.13461 8.82989 4.13248C8.82989 4.40491 8.82989 4.67734 8.91493 4.94978C6.1088 4.76816 3.55778 3.31517 1.8571 1.13568C1.602 1.68055 1.43193 2.31624 1.43193 2.95192C1.43193 4.22329 2.02717 5.31303 2.96254 5.94872C2.3673 5.94872 1.8571 5.76709 1.43193 5.49466C1.43193 7.22008 2.6224 8.76388 4.15301 9.03632C3.89791 9.12713 3.55778 9.12713 3.21765 9.12713C2.96255 9.12713 2.79247 9.12713 2.53737 9.03632C2.96254 10.4893 4.23806 11.5791 5.76867 11.5791C4.57819 12.578 3.13261 13.1229 1.51697 13.1229C1.26186 13.1229 1.00676 13.1229 0.666626 13.032C2.19724 14.031 3.98295 14.6667 5.93873 14.6667C12.2313 14.6667 15.6326 9.12713 15.6326 4.3141V3.86004C16.3129 3.5876 16.9081 2.95192 17.3333 2.22542Z" fill="white"/>
</svg>
