<svg width="20" height="14" viewBox="0 0 20 14" fill="none" xmlns="http://www.w3.org/2000/svg">
<path d="M16.3635 1.45015C15.1767 0.928489 13.9077 0.549354 12.5812 0.333496C12.4182 0.610236 12.2279 0.982451 12.0967 1.27856C10.6864 1.07931 9.28909 1.07931 7.90481 1.27856C7.7736 0.982451 7.5789 0.610236 7.41456 0.333496C6.08649 0.549354 4.8161 0.929873 3.62936 1.45291C1.23567 4.85128 0.586782 8.16527 0.911227 11.4322C2.49884 12.5461 4.03743 13.2227 5.55007 13.6654C5.92354 13.1826 6.25663 12.6692 6.54359 12.1282C5.99708 11.933 5.47365 11.6923 4.97904 11.4128C5.11026 11.3215 5.2386 11.226 5.36261 11.1278C8.37925 12.4533 11.6568 12.4533 14.6374 11.1278C14.7628 11.226 14.8912 11.3215 15.021 11.4128C14.5249 11.6937 14.0001 11.9344 13.4535 12.1295C13.7405 12.6692 14.0721 13.1839 14.4471 13.6668C15.9611 13.2241 17.5012 12.5474 19.0888 11.4322C19.4695 7.64499 18.4385 4.36145 16.3635 1.45015ZM6.95455 9.42305C6.049 9.42305 5.30637 8.62877 5.30637 7.6616C5.30637 6.69438 6.03313 5.89877 6.95455 5.89877C7.87599 5.89877 8.61858 6.69299 8.60272 7.6616C8.6042 8.62877 7.87599 9.42305 6.95455 9.42305ZM13.0455 9.42305C12.1399 9.42305 11.3973 8.62877 11.3973 7.6616C11.3973 6.69438 12.1241 5.89877 13.0455 5.89877C13.9669 5.89877 14.7095 6.69299 14.6937 7.6616C14.6937 8.62877 13.9669 9.42305 13.0455 9.42305Z" fill="white"/>
</svg>
